<svg xmlns="http://www.w3.org/2000/svg" xmlns:xlink="http://www.w3.org/1999/xlink" width="1920" zoomAndPan="magnify" viewBox="0 0 1440 809.999993" height="1080" preserveAspectRatio="xMidYMid meet" version="1.0"><defs><g/><clipPath id="1a09ee6cce"><path d="M 1054.480469 237.996094 L 1379.117188 237.996094 L 1379.117188 562.632812 L 1054.480469 562.632812 Z M 1054.480469 237.996094 " clip-rule="nonzero"/></clipPath><clipPath id="1e33081759"><path d="M 1188.1875 300.359375 L 1326.699219 300.359375 L 1326.699219 438.871094 L 1188.1875 438.871094 Z M 1188.1875 300.359375 " clip-rule="nonzero"/></clipPath><clipPath id="355ac8ee2e"><path d="M 1181.820312 400.3125 L 1240.253906 400.3125 L 1240.253906 458.746094 L 1181.820312 458.746094 Z M 1181.820312 400.3125 " clip-rule="nonzero"/></clipPath></defs><g fill="#000000" fill-opacity="1"><g transform="translate(43.423912, 559.418981)"><g><path d="M 322.902344 -317.460938 L 82.992188 -317.460938 C 50.339844 -317.460938 22.222656 -289.339844 22.222656 -257.140625 L 22.222656 -59.410156 C 22.222656 -27.210938 49.886719 0.453125 82.992188 0.453125 L 322.902344 0.453125 C 331.066406 0.453125 331.066406 -10.882812 322.902344 -10.882812 L 82.992188 -10.882812 C 55.78125 -10.882812 33.558594 -32.652344 33.558594 -59.410156 L 33.558594 -256.6875 C 33.558594 -283.898438 55.78125 -306.121094 82.992188 -306.121094 L 322.902344 -306.121094 C 331.066406 -306.121094 331.066406 -317.460938 322.902344 -317.460938 Z M 322.902344 -317.460938 "/></g></g></g><g fill="#000000" fill-opacity="1"><g transform="translate(1076.337405, 239.720514)"><g><path d="M -326.53125 314.738281 L -222.222656 45.351562 C -204.082031 -2.265625 -144.21875 -2.265625 -126.078125 45.351562 L -22.675781 314.738281 C -19.953125 321.996094 -9.070312 318.367188 -12.246094 310.203125 L -114.285156 41.722656 C -136.507812 -15.871094 -211.789062 -15.871094 -234.011719 41.722656 L -336.960938 310.203125 C -340.136719 318.367188 -329.25 321.996094 -326.53125 314.738281 Z M -326.53125 314.738281 "/></g></g></g><g fill="#000000" fill-opacity="1"><g transform="translate(726.224787, 239.720514)"><g><path d="M -326.53125 314.738281 L -222.222656 45.351562 C -204.082031 -2.265625 -144.21875 -2.265625 -126.078125 45.351562 L -22.675781 314.738281 C -19.953125 321.996094 -9.070312 318.367188 -12.246094 310.203125 L -114.285156 41.722656 C -136.507812 -15.871094 -211.789062 -15.871094 -234.011719 41.722656 L -336.960938 310.203125 C -340.136719 318.367188 -329.25 321.996094 -326.53125 314.738281 Z M -326.53125 314.738281 "/></g></g></g><g clip-path="url(#1a09ee6cce)"><path fill="#ffde59" d="M 1216.800781 237.996094 C 1127.152344 237.996094 1054.480469 310.667969 1054.480469 400.3125 C 1054.480469 489.960938 1127.152344 562.632812 1216.800781 562.632812 C 1306.445312 562.632812 1379.117188 489.960938 1379.117188 400.3125 C 1379.117188 310.667969 1306.445312 237.996094 1216.800781 237.996094 " fill-opacity="1" fill-rule="nonzero"/></g><g clip-path="url(#1e33081759)"><path fill="#d94122" d="M 1257.445312 300.359375 C 1219.195312 300.359375 1188.1875 331.367188 1188.1875 369.617188 C 1188.1875 407.863281 1219.195312 438.871094 1257.445312 438.871094 C 1295.691406 438.871094 1326.699219 407.863281 1326.699219 369.617188 C 1326.699219 331.367188 1295.691406 300.359375 1257.445312 300.359375 " fill-opacity="1" fill-rule="nonzero"/></g><g clip-path="url(#355ac8ee2e)"><path fill="#7d5538" d="M 1211.039062 400.3125 C 1194.902344 400.3125 1181.820312 413.394531 1181.820312 429.53125 C 1181.820312 445.667969 1194.902344 458.746094 1211.039062 458.746094 C 1227.175781 458.746094 1240.253906 445.667969 1240.253906 429.53125 C 1240.253906 413.394531 1227.175781 400.3125 1211.039062 400.3125 " fill-opacity="1" fill-rule="nonzero"/></g><g fill="#000000" fill-opacity="1"><g transform="translate(36.839538, 639.17646)"><g><path d="M 26.011719 -45.414062 C 16.589844 -45.414062 2.953125 -39.085938 2.953125 -22.988281 C 2.953125 -9.207031 13.636719 0.703125 25.589844 0.703125 C 32.265625 0.703125 39.648438 -2.53125 43.515625 -8.015625 C 45.34375 -10.613281 41.054688 -13.144531 39.507812 -10.824219 C 36.203125 -6.609375 31.140625 -4.148438 25.730469 -4.148438 C 16.097656 -4.148438 7.945312 -12.300781 7.945312 -22.917969 C 7.945312 -36.765625 18.628906 -40.632812 26.152344 -40.632812 C 30.859375 -40.632812 35.148438 -39.296875 38.945312 -35.289062 C 40.914062 -33.179688 44.640625 -36.0625 42.53125 -38.453125 C 38.03125 -43.234375 32.40625 -45.414062 26.011719 -45.414062 Z M 26.011719 -45.414062 "/></g></g></g><g fill="#000000" fill-opacity="1"><g transform="translate(83.72019, 639.17646)"><g><path d="M 39.226562 -17.996094 C 39.015625 -30.71875 30.226562 -36.273438 20.738281 -36.273438 C 11.738281 -36.273438 2.8125 -29.804688 2.8125 -17.925781 C 2.8125 -7.3125 9.980469 0.703125 21.089844 0.703125 C 25.660156 0.773438 30.367188 -0.492188 33.601562 -3.515625 C 36.34375 -6.328125 32.6875 -9.207031 30.226562 -6.960938 C 27.488281 -4.851562 24.113281 -4.007812 20.878906 -4.007812 C 13.847656 -4.007812 8.929688 -9 8.015625 -14.761719 L 35.78125 -14.761719 C 38.664062 -14.761719 39.226562 -16.449219 39.226562 -17.996094 Z M 7.804688 -19.050781 C 8.4375 -27.488281 14.480469 -31.492188 21.089844 -31.492188 C 26.996094 -31.492188 33.601562 -27.488281 34.304688 -19.050781 Z M 7.804688 -19.050781 "/></g></g></g><g fill="#000000" fill-opacity="1"><g transform="translate(127.227089, 639.17646)"><g><path d="M 34.023438 -20.527344 L 34.023438 -2.460938 C 34.023438 -0.914062 35.078125 0 36.625 0 C 38.242188 0 39.15625 -0.914062 39.15625 -2.460938 L 39.15625 -20.527344 C 39.15625 -30.648438 31.351562 -36.273438 23.199219 -36.273438 C 17.714844 -36.273438 12.300781 -34.09375 9.769531 -28.960938 L 9.769531 -33.039062 C 9.769531 -34.726562 8.507812 -35.570312 7.242188 -35.570312 C 5.976562 -35.570312 4.710938 -34.726562 4.710938 -33.109375 L 4.710938 -2.460938 C 4.710938 -0.914062 5.765625 0 7.382812 0 C 9 0 9.910156 -0.914062 9.910156 -2.460938 L 9.910156 -18.207031 C 9.910156 -25.871094 16.308594 -31.492188 23.128906 -31.492188 C 28.820312 -31.492188 34.023438 -26.996094 34.023438 -20.527344 Z M 34.023438 -20.527344 "/></g></g></g><g fill="#000000" fill-opacity="1"><g transform="translate(172.561431, 639.17646)"><g><path d="M 20.175781 -35.570312 L 12.511719 -35.570312 L 12.511719 -43.9375 C 12.511719 -47.238281 7.453125 -47.308594 7.453125 -43.9375 L 7.453125 -35.570312 L 2.8125 -35.570312 C -0.28125 -35.570312 -0.492188 -31.28125 2.8125 -31.28125 L 7.453125 -31.28125 L 7.453125 -12.160156 C 7.453125 -5.484375 9.488281 0.703125 17.925781 0.703125 C 19.824219 0.703125 21.582031 0.492188 23.339844 -0.492188 C 26.503906 -2.25 24.183594 -6.398438 21.230469 -4.710938 C 20.527344 -4.289062 18.980469 -3.9375 17.925781 -3.9375 C 13.144531 -3.9375 12.511719 -8.15625 12.511719 -12.160156 L 12.511719 -31.28125 L 20.175781 -31.28125 C 23.339844 -31.28125 23.339844 -35.570312 20.175781 -35.570312 Z M 20.175781 -35.570312 "/></g></g></g><g fill="#000000" fill-opacity="1"><g transform="translate(199.621474, 639.17646)"><g><path d="M 39.226562 -17.996094 C 39.015625 -30.71875 30.226562 -36.273438 20.738281 -36.273438 C 11.738281 -36.273438 2.8125 -29.804688 2.8125 -17.925781 C 2.8125 -7.3125 9.980469 0.703125 21.089844 0.703125 C 25.660156 0.773438 30.367188 -0.492188 33.601562 -3.515625 C 36.34375 -6.328125 32.6875 -9.207031 30.226562 -6.960938 C 27.488281 -4.851562 24.113281 -4.007812 20.878906 -4.007812 C 13.847656 -4.007812 8.929688 -9 8.015625 -14.761719 L 35.78125 -14.761719 C 38.664062 -14.761719 39.226562 -16.449219 39.226562 -17.996094 Z M 7.804688 -19.050781 C 8.4375 -27.488281 14.480469 -31.492188 21.089844 -31.492188 C 26.996094 -31.492188 33.601562 -27.488281 34.304688 -19.050781 Z M 7.804688 -19.050781 "/></g></g></g><g fill="#000000" fill-opacity="1"><g transform="translate(243.128373, 639.17646)"><g><path d="M 9.488281 -30.296875 L 9.488281 -33.109375 C 9.488281 -34.726562 8.296875 -35.570312 7.101562 -35.570312 C 5.835938 -35.570312 4.5 -34.65625 4.5 -33.109375 L 4.5 -2.460938 C 4.5 -0.984375 5.554688 0 7.101562 0 C 8.4375 0 9.628906 -0.984375 9.628906 -2.460938 L 9.628906 -18.558594 C 9.628906 -25.660156 12.722656 -31.421875 19.964844 -31.421875 C 21.582031 -31.421875 22.636719 -32.265625 22.636719 -33.8125 C 22.636719 -35.429688 21.582031 -36.273438 19.964844 -36.273438 C 15.957031 -36.273438 11.738281 -35.007812 9.488281 -30.296875 Z M 9.488281 -30.296875 "/></g></g></g><g fill="#000000" fill-opacity="1"><g transform="translate(266.814709, 639.17646)"><g/></g></g><g fill="#000000" fill-opacity="1"><g transform="translate(286.002754, 639.17646)"><g><path d="M 11.597656 -30.648438 L 18.347656 -30.648438 C 20.878906 -30.648438 20.878906 -34.9375 18.347656 -34.9375 L 11.597656 -34.9375 L 11.597656 -36.765625 C 11.597656 -40.492188 14.550781 -42.390625 17.363281 -42.390625 C 18.628906 -42.390625 19.894531 -41.96875 20.808594 -41.125 C 22.917969 -39.296875 26.152344 -42.601562 23.691406 -44.710938 C 21.722656 -46.253906 19.402344 -46.957031 17.082031 -46.957031 C 11.667969 -46.957031 6.46875 -43.09375 6.46875 -36.835938 L 6.46875 -34.9375 L 2.742188 -34.9375 C 0 -34.9375 -0.0703125 -30.648438 2.671875 -30.648438 L 6.46875 -30.648438 L 6.46875 -2.320312 C 6.46875 -0.773438 7.734375 0 9.070312 0 C 10.332031 0 11.597656 -0.773438 11.597656 -2.320312 Z M 11.597656 -30.648438 "/></g></g></g><g fill="#000000" fill-opacity="1"><g transform="translate(310.602789, 639.17646)"><g><path d="M 20.878906 0.703125 C 31.492188 0.703125 39.226562 -7.242188 39.226562 -17.925781 C 39.226562 -27.976562 31.5625 -36.273438 20.878906 -36.273438 C 10.332031 -36.273438 2.53125 -28.46875 2.53125 -18.277344 C 2.53125 -7.804688 9.699219 0.703125 20.878906 0.703125 Z M 20.808594 -31.492188 C 27.417969 -31.492188 34.09375 -27.066406 34.09375 -17.574219 C 34.09375 -10.542969 28.75 -4.148438 20.878906 -4.148438 C 13.003906 -4.148438 7.734375 -10.191406 7.734375 -17.714844 C 7.734375 -26.855469 14.058594 -31.492188 20.808594 -31.492188 Z M 20.808594 -31.492188 "/></g></g></g><g fill="#000000" fill-opacity="1"><g transform="translate(353.406828, 639.17646)"><g><path d="M 9.488281 -30.296875 L 9.488281 -33.109375 C 9.488281 -34.726562 8.296875 -35.570312 7.101562 -35.570312 C 5.835938 -35.570312 4.5 -34.65625 4.5 -33.109375 L 4.5 -2.460938 C 4.5 -0.984375 5.554688 0 7.101562 0 C 8.4375 0 9.628906 -0.984375 9.628906 -2.460938 L 9.628906 -18.558594 C 9.628906 -25.660156 12.722656 -31.421875 19.964844 -31.421875 C 21.582031 -31.421875 22.636719 -32.265625 22.636719 -33.8125 C 22.636719 -35.429688 21.582031 -36.273438 19.964844 -36.273438 C 15.957031 -36.273438 11.738281 -35.007812 9.488281 -30.296875 Z M 9.488281 -30.296875 "/></g></g></g><g fill="#000000" fill-opacity="1"><g transform="translate(377.093164, 639.17646)"><g/></g></g><g fill="#000000" fill-opacity="1"><g transform="translate(396.281209, 639.17646)"><g><path d="M 23.691406 -45.414062 C 22.777344 -45.414062 21.792969 -44.992188 21.371094 -44.078125 L 0.632812 -3.304688 C -0.210938 -1.476562 1.546875 0 3.164062 0 C 4.007812 0 4.78125 -0.351562 5.273438 -1.265625 L 10.472656 -11.316406 L 36.90625 -11.316406 L 41.96875 -1.335938 C 42.460938 -0.351562 43.375 0 44.289062 0 C 46.042969 0 47.660156 -1.40625 46.675781 -3.375 L 25.941406 -44.078125 C 25.449219 -44.992188 24.605469 -45.414062 23.691406 -45.414062 Z M 23.691406 -37.890625 L 34.726562 -15.746094 L 12.582031 -15.746094 Z M 23.691406 -37.890625 "/></g></g></g><g fill="#000000" fill-opacity="1"><g transform="translate(445.270392, 639.17646)"><g><path d="M 1.96875 -7.945312 C 3.375 -0.914062 12.371094 0.703125 18.207031 0.703125 C 24.042969 0.703125 34.164062 -1.617188 34.164062 -10.472656 C 34.164062 -19.261719 25.941406 -19.964844 18.207031 -20.667969 C 12.582031 -21.089844 7.382812 -21.019531 7.382812 -25.519531 C 7.382812 -29.875 13.496094 -31.632812 17.574219 -31.632812 C 20.738281 -31.632812 26.644531 -31.351562 28.1875 -27.277344 C 29.101562 -24.605469 33.953125 -25.941406 32.96875 -29.101562 C 30.507812 -35.429688 22.988281 -36.273438 17.574219 -36.273438 C 10.824219 -36.273438 2.25 -33.109375 2.25 -25.589844 C 2.25 -16.941406 10.402344 -16.308594 17.996094 -15.605469 C 23.691406 -15.183594 29.03125 -14.972656 29.03125 -10.472656 C 29.03125 -5.625 21.652344 -3.867188 18.207031 -3.867188 C 13.074219 -3.867188 7.59375 -5.695312 6.890625 -8.859375 C 6.257812 -12.371094 1.125 -10.894531 1.96875 -7.945312 Z M 1.96875 -7.945312 "/></g></g></g><g fill="#000000" fill-opacity="1"><g transform="translate(482.87328, 639.17646)"><g><path d="M 20.175781 -35.570312 L 12.511719 -35.570312 L 12.511719 -43.9375 C 12.511719 -47.238281 7.453125 -47.308594 7.453125 -43.9375 L 7.453125 -35.570312 L 2.8125 -35.570312 C -0.28125 -35.570312 -0.492188 -31.28125 2.8125 -31.28125 L 7.453125 -31.28125 L 7.453125 -12.160156 C 7.453125 -5.484375 9.488281 0.703125 17.925781 0.703125 C 19.824219 0.703125 21.582031 0.492188 23.339844 -0.492188 C 26.503906 -2.25 24.183594 -6.398438 21.230469 -4.710938 C 20.527344 -4.289062 18.980469 -3.9375 17.925781 -3.9375 C 13.144531 -3.9375 12.511719 -8.15625 12.511719 -12.160156 L 12.511719 -31.28125 L 20.175781 -31.28125 C 23.339844 -31.28125 23.339844 -35.570312 20.175781 -35.570312 Z M 20.175781 -35.570312 "/></g></g></g><g fill="#000000" fill-opacity="1"><g transform="translate(509.933324, 639.17646)"><g><path d="M 9.488281 -30.296875 L 9.488281 -33.109375 C 9.488281 -34.726562 8.296875 -35.570312 7.101562 -35.570312 C 5.835938 -35.570312 4.5 -34.65625 4.5 -33.109375 L 4.5 -2.460938 C 4.5 -0.984375 5.554688 0 7.101562 0 C 8.4375 0 9.628906 -0.984375 9.628906 -2.460938 L 9.628906 -18.558594 C 9.628906 -25.660156 12.722656 -31.421875 19.964844 -31.421875 C 21.582031 -31.421875 22.636719 -32.265625 22.636719 -33.8125 C 22.636719 -35.429688 21.582031 -36.273438 19.964844 -36.273438 C 15.957031 -36.273438 11.738281 -35.007812 9.488281 -30.296875 Z M 9.488281 -30.296875 "/></g></g></g><g fill="#000000" fill-opacity="1"><g transform="translate(533.61966, 639.17646)"><g><path d="M 20.878906 0.703125 C 31.492188 0.703125 39.226562 -7.242188 39.226562 -17.925781 C 39.226562 -27.976562 31.5625 -36.273438 20.878906 -36.273438 C 10.332031 -36.273438 2.53125 -28.46875 2.53125 -18.277344 C 2.53125 -7.804688 9.699219 0.703125 20.878906 0.703125 Z M 20.808594 -31.492188 C 27.417969 -31.492188 34.09375 -27.066406 34.09375 -17.574219 C 34.09375 -10.542969 28.75 -4.148438 20.878906 -4.148438 C 13.003906 -4.148438 7.734375 -10.191406 7.734375 -17.714844 C 7.734375 -26.855469 14.058594 -31.492188 20.808594 -31.492188 Z M 20.808594 -31.492188 "/></g></g></g><g fill="#000000" fill-opacity="1"><g transform="translate(576.423699, 639.17646)"><g><path d="M 34.023438 -20.527344 L 34.023438 -2.460938 C 34.023438 -0.914062 35.078125 0 36.625 0 C 38.242188 0 39.15625 -0.914062 39.15625 -2.460938 L 39.15625 -20.527344 C 39.15625 -30.648438 31.351562 -36.273438 23.199219 -36.273438 C 17.714844 -36.273438 12.300781 -34.09375 9.769531 -28.960938 L 9.769531 -33.039062 C 9.769531 -34.726562 8.507812 -35.570312 7.242188 -35.570312 C 5.976562 -35.570312 4.710938 -34.726562 4.710938 -33.109375 L 4.710938 -2.460938 C 4.710938 -0.914062 5.765625 0 7.382812 0 C 9 0 9.910156 -0.914062 9.910156 -2.460938 L 9.910156 -18.207031 C 9.910156 -25.871094 16.308594 -31.492188 23.128906 -31.492188 C 28.820312 -31.492188 34.023438 -26.996094 34.023438 -20.527344 Z M 34.023438 -20.527344 "/></g></g></g><g fill="#000000" fill-opacity="1"><g transform="translate(621.758041, 639.17646)"><g><path d="M 20.878906 0.703125 C 31.492188 0.703125 39.226562 -7.242188 39.226562 -17.925781 C 39.226562 -27.976562 31.5625 -36.273438 20.878906 -36.273438 C 10.332031 -36.273438 2.53125 -28.46875 2.53125 -18.277344 C 2.53125 -7.804688 9.699219 0.703125 20.878906 0.703125 Z M 20.808594 -31.492188 C 27.417969 -31.492188 34.09375 -27.066406 34.09375 -17.574219 C 34.09375 -10.542969 28.75 -4.148438 20.878906 -4.148438 C 13.003906 -4.148438 7.734375 -10.191406 7.734375 -17.714844 C 7.734375 -26.855469 14.058594 -31.492188 20.808594 -31.492188 Z M 20.808594 -31.492188 "/></g></g></g><g fill="#000000" fill-opacity="1"><g transform="translate(664.56208, 639.17646)"><g><path d="M 63.832031 -21.089844 L 63.832031 -2.460938 C 63.832031 -0.914062 64.742188 0 66.359375 0 C 67.90625 0 68.960938 -0.914062 68.960938 -2.460938 L 68.960938 -21.300781 C 68.960938 -30.929688 60.808594 -36.273438 52.722656 -36.273438 C 46.464844 -36.273438 40.351562 -33.320312 37.820312 -27.066406 C 35.710938 -33.320312 29.664062 -36.273438 23.550781 -36.273438 C 18.136719 -36.273438 13.144531 -34.09375 10.332031 -29.03125 L 10.332031 -33.109375 C 10.332031 -34.445312 9.417969 -35.570312 7.875 -35.570312 C 6.46875 -35.570312 5.34375 -34.445312 5.34375 -33.109375 L 5.34375 -2.390625 C 5.34375 -0.773438 6.609375 0 7.945312 0 C 9.207031 0 10.472656 -0.773438 10.472656 -2.390625 L 10.472656 -18.277344 C 10.472656 -26.152344 16.730469 -31.421875 23.621094 -31.421875 C 25.800781 -31.421875 27.835938 -30.929688 29.664062 -29.804688 C 32.898438 -27.765625 34.515625 -23.902344 34.515625 -19.894531 L 34.515625 -2.460938 C 34.515625 -0.914062 35.570312 0 37.117188 0 C 38.664062 0 39.71875 -0.914062 39.71875 -2.460938 L 39.71875 -17.925781 C 39.71875 -26.011719 45.554688 -31.492188 52.933594 -31.492188 C 58.839844 -31.492188 63.691406 -27.136719 63.832031 -21.089844 Z M 63.832031 -21.089844 "/></g></g></g><g fill="#000000" fill-opacity="1"><g transform="translate(739.627312, 639.17646)"><g><path d="M 9.347656 -44.148438 L 9.347656 -44.5 C 9.347656 -46.113281 8.015625 -46.957031 6.75 -46.957031 C 5.414062 -46.957031 4.078125 -46.113281 4.078125 -44.5 L 4.078125 -44.148438 C 4.078125 -42.53125 5.414062 -41.757812 6.679688 -41.757812 C 8.015625 -41.757812 9.347656 -42.53125 9.347656 -44.148438 Z M 4.148438 -33.25 L 4.148438 -2.320312 C 4.148438 -0.773438 5.414062 0 6.75 0 C 8.015625 0 9.277344 -0.773438 9.277344 -2.320312 L 9.277344 -33.320312 C 9.277344 -34.796875 8.015625 -35.570312 6.75 -35.570312 C 5.484375 -35.570312 4.148438 -34.796875 4.148438 -33.25 Z M 4.148438 -33.25 "/></g></g></g><g fill="#000000" fill-opacity="1"><g transform="translate(753.825046, 639.17646)"><g><path d="M 30.085938 -27.488281 C 31.984375 -25.238281 35.710938 -28.117188 33.742188 -30.367188 C 30.015625 -34.585938 26.011719 -36.273438 21.019531 -36.273438 C 6.960938 -36.273438 2.742188 -24.957031 2.742188 -17.855469 C 2.742188 -7.453125 10.050781 0.703125 20.667969 0.703125 C 25.800781 0.703125 31 -1.476562 34.375 -5.625 C 36.695312 -8.296875 32.546875 -10.964844 30.859375 -8.648438 C 28.398438 -5.34375 24.394531 -3.9375 20.738281 -3.9375 C 12.933594 -3.9375 7.875 -10.191406 7.875 -17.714844 C 7.875 -25.589844 13.003906 -31.703125 20.527344 -31.703125 C 23.972656 -31.703125 27.488281 -30.507812 30.085938 -27.488281 Z M 30.085938 -27.488281 "/></g></g></g><g fill="#000000" fill-opacity="1"><g transform="translate(791.63882, 639.17646)"><g><path d="M 20.808594 -36.273438 C 10.824219 -36.273438 2.53125 -30.015625 2.53125 -17.996094 C 2.53125 -6.328125 10.332031 0.703125 20.527344 0.703125 C 24.675781 0.703125 29.875 -1.476562 31.914062 -5.554688 L 31.914062 -2.53125 C 31.914062 -0.984375 32.828125 0 34.445312 0 C 35.992188 0 37.046875 -0.984375 37.046875 -2.53125 L 37.046875 -33.039062 C 37.046875 -34.515625 35.992188 -35.570312 34.445312 -35.570312 C 32.828125 -35.570312 31.914062 -34.515625 31.914062 -33.039062 L 31.914062 -30.71875 C 29.382812 -34.867188 24.816406 -36.273438 20.808594 -36.273438 Z M 20.597656 -4.148438 C 16.027344 -4.148438 7.664062 -7.734375 7.664062 -17.996094 C 7.664062 -25.167969 12.230469 -31.5625 20.738281 -31.421875 C 27.066406 -31.140625 31.914062 -27.488281 31.914062 -20.527344 L 31.914062 -14.972656 C 31.914062 -8.15625 26.785156 -4.359375 20.597656 -4.148438 Z M 20.597656 -4.148438 "/></g></g></g><g fill="#000000" fill-opacity="1"><g transform="translate(834.934879, 639.17646)"><g><path d="M 9.277344 -2.390625 L 9.277344 -44.570312 C 9.277344 -45.90625 8.15625 -46.957031 6.75 -46.957031 C 5.203125 -46.957031 4.148438 -45.90625 4.148438 -44.570312 L 4.148438 -2.390625 C 4.148438 -1.054688 5.203125 0 6.75 0 C 8.15625 0 9.277344 -1.054688 9.277344 -2.390625 Z M 9.277344 -2.390625 "/></g></g></g><g fill="#000000" fill-opacity="1"><g transform="translate(849.13266, 639.17646)"><g/></g></g><g fill="#000000" fill-opacity="1"><g transform="translate(868.320705, 639.17646)"><g><path d="M 23.691406 -45.414062 C 22.777344 -45.414062 21.792969 -44.992188 21.371094 -44.078125 L 0.632812 -3.304688 C -0.210938 -1.476562 1.546875 0 3.164062 0 C 4.007812 0 4.78125 -0.351562 5.273438 -1.265625 L 10.472656 -11.316406 L 36.90625 -11.316406 L 41.96875 -1.335938 C 42.460938 -0.351562 43.375 0 44.289062 0 C 46.042969 0 47.660156 -1.40625 46.675781 -3.375 L 25.941406 -44.078125 C 25.449219 -44.992188 24.605469 -45.414062 23.691406 -45.414062 Z M 23.691406 -37.890625 L 34.726562 -15.746094 L 12.582031 -15.746094 Z M 23.691406 -37.890625 "/></g></g></g><g fill="#000000" fill-opacity="1"><g transform="translate(917.309841, 639.17646)"><g><path d="M 20.667969 -36.203125 C 7.03125 -36.203125 2.671875 -25.097656 2.671875 -18.066406 C 2.671875 -5.90625 10.894531 0.703125 20.667969 0.703125 C 24.886719 0.703125 29.804688 -0.984375 32.195312 -5.34375 L 32.195312 -2.460938 C 32.195312 -0.914062 32.96875 0 34.585938 0 C 36.203125 0 37.1875 -0.914062 37.1875 -2.460938 L 37.1875 -44.5 C 37.1875 -46.113281 35.921875 -46.957031 34.65625 -46.957031 C 33.320312 -46.957031 32.054688 -46.113281 32.054688 -44.5 L 32.054688 -30.507812 C 29.945312 -34.234375 25.378906 -36.203125 20.667969 -36.203125 Z M 21.089844 -4.148438 C 15.957031 -4.148438 7.804688 -7.382812 7.804688 -18.277344 C 7.804688 -22.847656 10.402344 -31.351562 20.878906 -31.351562 C 27.277344 -31.070312 32.054688 -26.714844 32.054688 -20.527344 L 32.054688 -14.972656 C 32.054688 -8.367188 27.136719 -4.5 21.089844 -4.148438 Z M 21.089844 -4.148438 "/></g></g></g><g fill="#000000" fill-opacity="1"><g transform="translate(960.676195, 639.17646)"><g><path d="M 20.808594 -36.273438 C 10.824219 -36.273438 2.53125 -30.015625 2.53125 -17.996094 C 2.53125 -6.328125 10.332031 0.703125 20.527344 0.703125 C 24.675781 0.703125 29.875 -1.476562 31.914062 -5.554688 L 31.914062 -2.53125 C 31.914062 -0.984375 32.828125 0 34.445312 0 C 35.992188 0 37.046875 -0.984375 37.046875 -2.53125 L 37.046875 -33.039062 C 37.046875 -34.515625 35.992188 -35.570312 34.445312 -35.570312 C 32.828125 -35.570312 31.914062 -34.515625 31.914062 -33.039062 L 31.914062 -30.71875 C 29.382812 -34.867188 24.816406 -36.273438 20.808594 -36.273438 Z M 20.597656 -4.148438 C 16.027344 -4.148438 7.664062 -7.734375 7.664062 -17.996094 C 7.664062 -25.167969 12.230469 -31.5625 20.738281 -31.421875 C 27.066406 -31.140625 31.914062 -27.488281 31.914062 -20.527344 L 31.914062 -14.972656 C 31.914062 -8.15625 26.785156 -4.359375 20.597656 -4.148438 Z M 20.597656 -4.148438 "/></g></g></g><g fill="#000000" fill-opacity="1"><g transform="translate(1003.972302, 639.17646)"><g><path d="M 39.226562 -16.730469 C 39.507812 -29.171875 31 -36.273438 21.230469 -36.273438 C 17.011719 -36.273438 12.089844 -34.023438 9.699219 -30.085938 L 9.699219 -33.109375 C 9.699219 -34.65625 8.929688 -35.570312 7.3125 -35.570312 C 5.695312 -35.570312 4.710938 -34.65625 4.710938 -33.109375 L 4.710938 10.261719 C 4.710938 13.496094 9.839844 13.496094 9.839844 10.261719 L 9.839844 -4.851562 C 11.949219 -1.125 16.519531 0.703125 21.230469 0.703125 C 31.773438 0.703125 38.945312 -6.75 39.226562 -16.730469 Z M 21.652344 -31.421875 C 28.75 -31.421875 34.234375 -24.957031 34.09375 -16.800781 C 33.8125 -9.839844 29.242188 -4.078125 21.019531 -4.078125 C 14.621094 -4.359375 9.839844 -8.71875 9.839844 -14.902344 L 9.839844 -20.457031 C 9.839844 -27.347656 15.253906 -31.421875 21.652344 -31.421875 Z M 21.652344 -31.421875 "/></g></g></g><g fill="#000000" fill-opacity="1"><g transform="translate(1047.549496, 639.17646)"><g><path d="M 20.175781 -35.570312 L 12.511719 -35.570312 L 12.511719 -43.9375 C 12.511719 -47.238281 7.453125 -47.308594 7.453125 -43.9375 L 7.453125 -35.570312 L 2.8125 -35.570312 C -0.28125 -35.570312 -0.492188 -31.28125 2.8125 -31.28125 L 7.453125 -31.28125 L 7.453125 -12.160156 C 7.453125 -5.484375 9.488281 0.703125 17.925781 0.703125 C 19.824219 0.703125 21.582031 0.492188 23.339844 -0.492188 C 26.503906 -2.25 24.183594 -6.398438 21.230469 -4.710938 C 20.527344 -4.289062 18.980469 -3.9375 17.925781 -3.9375 C 13.144531 -3.9375 12.511719 -8.15625 12.511719 -12.160156 L 12.511719 -31.28125 L 20.175781 -31.28125 C 23.339844 -31.28125 23.339844 -35.570312 20.175781 -35.570312 Z M 20.175781 -35.570312 "/></g></g></g><g fill="#000000" fill-opacity="1"><g transform="translate(1074.609492, 639.17646)"><g><path d="M 9.347656 -44.148438 L 9.347656 -44.5 C 9.347656 -46.113281 8.015625 -46.957031 6.75 -46.957031 C 5.414062 -46.957031 4.078125 -46.113281 4.078125 -44.5 L 4.078125 -44.148438 C 4.078125 -42.53125 5.414062 -41.757812 6.679688 -41.757812 C 8.015625 -41.757812 9.347656 -42.53125 9.347656 -44.148438 Z M 4.148438 -33.25 L 4.148438 -2.320312 C 4.148438 -0.773438 5.414062 0 6.75 0 C 8.015625 0 9.277344 -0.773438 9.277344 -2.320312 L 9.277344 -33.320312 C 9.277344 -34.796875 8.015625 -35.570312 6.75 -35.570312 C 5.484375 -35.570312 4.148438 -34.796875 4.148438 -33.25 Z M 4.148438 -33.25 "/></g></g></g><g fill="#000000" fill-opacity="1"><g transform="translate(1088.807178, 639.17646)"><g><path d="M 0.703125 -32.265625 L 16.589844 -0.84375 C 17.222656 0.210938 18.066406 0.703125 18.839844 0.703125 C 19.824219 0.703125 20.738281 0.0703125 21.230469 -0.914062 L 37.117188 -32.476562 C 37.890625 -34.304688 36.273438 -35.570312 34.726562 -35.570312 C 33.8125 -35.570312 32.898438 -35.148438 32.546875 -34.234375 L 18.980469 -7.382812 L 5.554688 -34.164062 C 5.132812 -35.148438 4.21875 -35.570312 3.375 -35.570312 C 1.6875 -35.570312 0 -34.164062 0.703125 -32.265625 Z M 0.703125 -32.265625 "/></g></g></g><g fill="#000000" fill-opacity="1"><g transform="translate(1127.815785, 639.17646)"><g><path d="M 39.226562 -17.996094 C 39.015625 -30.71875 30.226562 -36.273438 20.738281 -36.273438 C 11.738281 -36.273438 2.8125 -29.804688 2.8125 -17.925781 C 2.8125 -7.3125 9.980469 0.703125 21.089844 0.703125 C 25.660156 0.773438 30.367188 -0.492188 33.601562 -3.515625 C 36.34375 -6.328125 32.6875 -9.207031 30.226562 -6.960938 C 27.488281 -4.851562 24.113281 -4.007812 20.878906 -4.007812 C 13.847656 -4.007812 8.929688 -9 8.015625 -14.761719 L 35.78125 -14.761719 C 38.664062 -14.761719 39.226562 -16.449219 39.226562 -17.996094 Z M 7.804688 -19.050781 C 8.4375 -27.488281 14.480469 -31.492188 21.089844 -31.492188 C 26.996094 -31.492188 33.601562 -27.488281 34.304688 -19.050781 Z M 7.804688 -19.050781 "/></g></g></g><g fill="#000000" fill-opacity="1"><g transform="translate(1171.32273, 639.17646)"><g/></g></g><g fill="#000000" fill-opacity="1"><g transform="translate(1190.510775, 639.17646)"><g><path d="M 25.378906 0.703125 C 37.328125 0.703125 47.871094 -8.507812 47.871094 -23.128906 C 47.871094 -38.945312 34.234375 -45.414062 24.816406 -45.414062 C 15.535156 -45.414062 2.601562 -38.875 2.601562 -23.128906 C 2.601562 -8.226562 12.722656 0.703125 25.378906 0.703125 Z M 7.875 -22.917969 C 7.875 -36.132812 17.785156 -40.703125 24.957031 -40.703125 C 32.195312 -40.703125 42.671875 -35.78125 42.671875 -22.917969 C 42.671875 -11.105469 34.867188 -4.078125 25.378906 -4.078125 C 15.464844 -4.078125 7.875 -11.386719 7.875 -22.917969 Z M 7.875 -22.917969 "/></g></g></g><g fill="#000000" fill-opacity="1"><g transform="translate(1242.873713, 639.17646)"><g><path d="M 39.226562 -16.730469 C 39.507812 -29.171875 31 -36.273438 21.230469 -36.273438 C 17.011719 -36.273438 12.089844 -34.023438 9.699219 -30.085938 L 9.699219 -33.109375 C 9.699219 -34.65625 8.929688 -35.570312 7.3125 -35.570312 C 5.695312 -35.570312 4.710938 -34.65625 4.710938 -33.109375 L 4.710938 10.261719 C 4.710938 13.496094 9.839844 13.496094 9.839844 10.261719 L 9.839844 -4.851562 C 11.949219 -1.125 16.519531 0.703125 21.230469 0.703125 C 31.773438 0.703125 38.945312 -6.75 39.226562 -16.730469 Z M 21.652344 -31.421875 C 28.75 -31.421875 34.234375 -24.957031 34.09375 -16.800781 C 33.8125 -9.839844 29.242188 -4.078125 21.019531 -4.078125 C 14.621094 -4.359375 9.839844 -8.71875 9.839844 -14.902344 L 9.839844 -20.457031 C 9.839844 -27.347656 15.253906 -31.421875 21.652344 -31.421875 Z M 21.652344 -31.421875 "/></g></g></g><g fill="#000000" fill-opacity="1"><g transform="translate(1286.450907, 639.17646)"><g><path d="M 20.175781 -35.570312 L 12.511719 -35.570312 L 12.511719 -43.9375 C 12.511719 -47.238281 7.453125 -47.308594 7.453125 -43.9375 L 7.453125 -35.570312 L 2.8125 -35.570312 C -0.28125 -35.570312 -0.492188 -31.28125 2.8125 -31.28125 L 7.453125 -31.28125 L 7.453125 -12.160156 C 7.453125 -5.484375 9.488281 0.703125 17.925781 0.703125 C 19.824219 0.703125 21.582031 0.492188 23.339844 -0.492188 C 26.503906 -2.25 24.183594 -6.398438 21.230469 -4.710938 C 20.527344 -4.289062 18.980469 -3.9375 17.925781 -3.9375 C 13.144531 -3.9375 12.511719 -8.15625 12.511719 -12.160156 L 12.511719 -31.28125 L 20.175781 -31.28125 C 23.339844 -31.28125 23.339844 -35.570312 20.175781 -35.570312 Z M 20.175781 -35.570312 "/></g></g></g><g fill="#000000" fill-opacity="1"><g transform="translate(1313.510903, 639.17646)"><g><path d="M 9.347656 -44.148438 L 9.347656 -44.5 C 9.347656 -46.113281 8.015625 -46.957031 6.75 -46.957031 C 5.414062 -46.957031 4.078125 -46.113281 4.078125 -44.5 L 4.078125 -44.148438 C 4.078125 -42.53125 5.414062 -41.757812 6.679688 -41.757812 C 8.015625 -41.757812 9.347656 -42.53125 9.347656 -44.148438 Z M 4.148438 -33.25 L 4.148438 -2.320312 C 4.148438 -0.773438 5.414062 0 6.75 0 C 8.015625 0 9.277344 -0.773438 9.277344 -2.320312 L 9.277344 -33.320312 C 9.277344 -34.796875 8.015625 -35.570312 6.75 -35.570312 C 5.484375 -35.570312 4.148438 -34.796875 4.148438 -33.25 Z M 4.148438 -33.25 "/></g></g></g><g fill="#000000" fill-opacity="1"><g transform="translate(1327.708589, 639.17646)"><g><path d="M 30.085938 -27.488281 C 31.984375 -25.238281 35.710938 -28.117188 33.742188 -30.367188 C 30.015625 -34.585938 26.011719 -36.273438 21.019531 -36.273438 C 6.960938 -36.273438 2.742188 -24.957031 2.742188 -17.855469 C 2.742188 -7.453125 10.050781 0.703125 20.667969 0.703125 C 25.800781 0.703125 31 -1.476562 34.375 -5.625 C 36.695312 -8.296875 32.546875 -10.964844 30.859375 -8.648438 C 28.398438 -5.34375 24.394531 -3.9375 20.738281 -3.9375 C 12.933594 -3.9375 7.875 -10.191406 7.875 -17.714844 C 7.875 -25.589844 13.003906 -31.703125 20.527344 -31.703125 C 23.972656 -31.703125 27.488281 -30.507812 30.085938 -27.488281 Z M 30.085938 -27.488281 "/></g></g></g><g fill="#000000" fill-opacity="1"><g transform="translate(1365.522316, 639.17646)"><g><path d="M 1.96875 -7.945312 C 3.375 -0.914062 12.371094 0.703125 18.207031 0.703125 C 24.042969 0.703125 34.164062 -1.617188 34.164062 -10.472656 C 34.164062 -19.261719 25.941406 -19.964844 18.207031 -20.667969 C 12.582031 -21.089844 7.382812 -21.019531 7.382812 -25.519531 C 7.382812 -29.875 13.496094 -31.632812 17.574219 -31.632812 C 20.738281 -31.632812 26.644531 -31.351562 28.1875 -27.277344 C 29.101562 -24.605469 33.953125 -25.941406 32.96875 -29.101562 C 30.507812 -35.429688 22.988281 -36.273438 17.574219 -36.273438 C 10.824219 -36.273438 2.25 -33.109375 2.25 -25.589844 C 2.25 -16.941406 10.402344 -16.308594 17.996094 -15.605469 C 23.691406 -15.183594 29.03125 -14.972656 29.03125 -10.472656 C 29.03125 -5.625 21.652344 -3.867188 18.207031 -3.867188 C 13.074219 -3.867188 7.59375 -5.695312 6.890625 -8.859375 C 6.257812 -12.371094 1.125 -10.894531 1.96875 -7.945312 Z M 1.96875 -7.945312 "/></g></g></g><path stroke-linecap="butt" transform="matrix(5.793795, -1.552442, 1.50301, 5.609308, 557.758466, 501.609187)" fill="none" stroke-linejoin="miter" d="M -0.000113386 0.00000217681 L 135.042601 0.000272087 " stroke="#a0fc24" stroke-width="1" stroke-opacity="1" stroke-miterlimit="4"/></svg>